<svg width="282" height="48" viewBox="0 0 282 48" fill="none" xmlns="http://www.w3.org/2000/svg">
<path d="M271.734 18.128C267.548 18.128 265.432 20.842 265.018 24.844H277.852C277.622 20.566 275.69 18.128 271.734 18.128ZM280.566 37.08C278.68 38.092 275.782 38.46 273.436 38.46C264.834 38.46 261.062 33.492 261.062 26.454C261.062 19.508 264.927 14.54 271.919 14.54C279.003 14.54 281.855 19.462 281.855 26.454V28.248H265.064C265.616 32.158 268.146 34.688 273.574 34.688C276.242 34.688 278.496 34.182 280.566 33.446V37.08Z" fill="white"/>
<path d="M257.927 33.86V37.402C256.547 38.138 254.431 38.46 252.315 38.46C244.127 38.46 240.309 33.492 240.309 26.454C240.309 19.508 244.127 14.54 252.315 14.54C254.385 14.54 255.995 14.816 257.789 15.644V19.324C256.317 18.634 254.753 18.22 252.591 18.22C246.611 18.22 244.173 21.992 244.173 26.454C244.173 30.916 246.657 34.688 252.683 34.688C255.029 34.688 256.501 34.366 257.927 33.86Z" fill="white"/>
<path d="M236.173 24.522V38H232.217V24.108C232.217 19.968 230.561 18.128 226.789 18.128C223.109 18.128 220.579 20.566 220.579 25.212V38H216.623V15H220.579V18.772C222.051 16.058 224.765 14.54 227.847 14.54C233.137 14.54 236.173 18.174 236.173 24.522Z" fill="white"/>
<path d="M201.791 18.128C197.605 18.128 195.489 20.842 195.075 24.844H207.909C207.679 20.566 205.747 18.128 201.791 18.128ZM210.623 37.08C208.737 38.092 205.839 38.46 203.493 38.46C194.891 38.46 191.119 33.492 191.119 26.454C191.119 19.508 194.983 14.54 201.975 14.54C209.059 14.54 211.911 19.462 211.911 26.454V28.248H195.121C195.673 32.158 198.203 34.688 203.631 34.688C206.299 34.688 208.553 34.182 210.623 33.446V37.08Z" fill="white"/>
<path d="M166.974 28.478V15H170.93V28.892C170.93 33.032 172.586 34.872 176.358 34.872C180.038 34.872 182.568 32.434 182.568 27.788V15H186.524V38H182.568V34.228C181.096 36.942 178.382 38.46 175.3 38.46C170.01 38.46 166.974 34.826 166.974 28.478Z" fill="white"/>
<path d="M163.627 37.9537C163.305 38.0457 162.615 38.1377 161.603 38.1377C157.831 38.1377 155.439 36.3437 155.439 32.1117V5.38574H159.395V31.6517C159.395 33.7217 160.775 34.4577 162.477 34.4577C162.891 34.4577 163.167 34.4577 163.627 34.4117V37.9537Z" fill="white"/>
<path d="M145.236 12.5619V14.9999H151.17V18.6799H145.236V37.9999H141.372V18.6799H137.646V14.9999H141.372V12.4699C141.372 8.19195 143.764 5.29395 148.686 5.29395C149.882 5.29395 150.664 5.47795 151.354 5.66195V9.29595C150.664 9.15795 149.79 9.06595 148.87 9.06595C146.432 9.06595 145.236 10.4919 145.236 12.5619Z" fill="white"/>
<path d="M134.245 24.522V38H130.289V24.108C130.289 19.968 128.633 18.128 124.861 18.128C121.181 18.128 118.651 20.566 118.651 25.212V38H114.695V15H118.651V18.772C120.123 16.058 122.837 14.54 125.919 14.54C131.209 14.54 134.245 18.174 134.245 24.522Z" fill="white"/>
<path d="M99.241 38.46C92.341 38.46 88.293 33.354 88.293 26.454C88.293 19.554 92.341 14.54 99.241 14.54C106.095 14.54 110.097 19.554 110.097 26.454C110.097 33.354 106.095 38.46 99.241 38.46ZM99.241 18.22C94.319 18.22 92.157 22.084 92.157 26.454C92.157 30.824 94.319 34.78 99.241 34.78C104.117 34.78 106.233 30.824 106.233 26.454C106.233 22.084 104.117 18.22 99.241 18.22Z" fill="white"/>
<path d="M85.3918 32.6639V36.6659C83.5058 37.9079 80.5158 38.4599 77.3878 38.4599C67.4518 38.4599 61.8398 32.4799 61.8398 22.9579C61.8398 13.7579 67.4518 7.31787 77.2958 7.31787C80.2398 7.31787 83.1838 7.86987 85.3458 9.43387V13.4359C83.1838 12.0559 80.7918 11.3199 77.2958 11.3199C70.2118 11.3199 65.9798 16.0119 65.9798 22.9579C65.9798 29.9039 70.3498 34.5039 77.5258 34.5039C80.6998 34.5039 83.1838 33.7679 85.3918 32.6639Z" fill="white"/>
<path d="M0 12C0 5.37258 5.37258 0 12 0H36C42.6274 0 48 5.37258 48 12V36C48 42.6274 42.6274 48 36 48H12C5.37258 48 0 42.6274 0 36V12Z" fill="#1868DB"/>
<g clip-path="url(#clip0_55714_37324)">
<path d="M34.7396 28.5301C27.3329 24.9487 25.1691 24.4136 22.0484 24.4136C18.3866 24.4136 15.2658 25.9367 12.4779 30.2179L12.0202 30.9177C11.6457 31.494 11.5625 31.6998 11.5625 31.9468C11.5625 32.1938 11.6873 32.3996 12.145 32.6878L16.847 35.6105C17.0967 35.7752 17.3048 35.8575 17.5128 35.8575C17.7625 35.8575 17.9289 35.734 18.1786 35.3635L18.9276 34.2109C20.0927 32.4408 21.1329 31.8645 22.4645 31.8645C23.6296 31.8645 25.0027 32.1938 26.7087 33.0171L31.6188 35.3224C32.1181 35.5693 32.659 35.4458 32.9087 34.8695L35.2389 29.765C35.4886 29.1887 35.3221 28.8182 34.7396 28.5301ZM13.1437 19.5149C20.5504 23.0963 22.7141 23.6314 25.8349 23.6314C29.4966 23.6314 32.6174 22.1083 35.4053 17.8271L35.8631 17.1273C36.2376 16.551 36.3208 16.3452 36.3208 16.0982C36.3208 15.8512 36.1959 15.6454 35.7382 15.3572L31.0362 12.4345C30.7866 12.2698 30.5785 12.1875 30.3705 12.1875C30.1208 12.1875 29.9544 12.311 29.7047 12.6815L28.9557 13.8341C27.7906 15.6042 26.7504 16.1805 25.4188 16.1805C24.2537 16.1805 22.8806 15.8512 21.1745 15.0279L16.2645 12.7226C15.7652 12.4757 15.2242 12.5992 14.9746 13.1755L12.6444 18.28C12.3947 18.8563 12.5612 19.2268 13.1437 19.5149Z" fill="white"/>
</g>
<defs>
<clipPath id="clip0_55714_37324">
<rect width="24.7583" height="23.67" fill="white" transform="translate(11.5625 12.1875)"/>
</clipPath>
</defs>
</svg>
