<svg width="221" height="137" viewBox="0 0 221 137" fill="none" xmlns="http://www.w3.org/2000/svg">
<path d="M209.895 107.628C205.709 107.628 203.593 110.342 203.179 114.344H216.013C215.783 110.066 213.851 107.628 209.895 107.628ZM218.727 126.58C216.841 127.592 213.943 127.96 211.597 127.96C202.995 127.96 199.223 122.992 199.223 115.954C199.223 109.008 203.087 104.04 210.079 104.04C217.163 104.04 220.015 108.962 220.015 115.954V117.748H203.225C203.777 121.658 206.307 124.188 211.735 124.188C214.403 124.188 216.657 123.682 218.727 122.946V126.58Z" fill="white"/>
<path d="M196.087 123.36V126.902C194.707 127.638 192.591 127.96 190.475 127.96C182.287 127.96 178.469 122.992 178.469 115.954C178.469 109.008 182.287 104.04 190.475 104.04C192.545 104.04 194.155 104.316 195.949 105.144V108.824C194.477 108.134 192.913 107.72 190.751 107.72C184.771 107.72 182.333 111.492 182.333 115.954C182.333 120.416 184.817 124.188 190.843 124.188C193.189 124.188 194.661 123.866 196.087 123.36Z" fill="white"/>
<path d="M174.333 114.022V127.5H170.377V113.608C170.377 109.468 168.721 107.628 164.949 107.628C161.269 107.628 158.739 110.066 158.739 114.712V127.5H154.783V104.5H158.739V108.272C160.211 105.558 162.925 104.04 166.007 104.04C171.297 104.04 174.333 107.674 174.333 114.022Z" fill="white"/>
<path d="M139.951 107.628C135.765 107.628 133.649 110.342 133.235 114.344H146.069C145.839 110.066 143.907 107.628 139.951 107.628ZM148.783 126.58C146.897 127.592 143.999 127.96 141.653 127.96C133.051 127.96 129.279 122.992 129.279 115.954C129.279 109.008 133.143 104.04 140.135 104.04C147.219 104.04 150.071 108.962 150.071 115.954V117.748H133.281C133.833 121.658 136.363 124.188 141.791 124.188C144.459 124.188 146.713 123.682 148.783 122.946V126.58Z" fill="white"/>
<path d="M105.134 117.978V104.5H109.09V118.392C109.09 122.532 110.746 124.372 114.518 124.372C118.198 124.372 120.728 121.934 120.728 117.288V104.5H124.684V127.5H120.728V123.728C119.256 126.442 116.542 127.96 113.46 127.96C108.17 127.96 105.134 124.326 105.134 117.978Z" fill="white"/>
<path d="M101.788 127.454C101.466 127.546 100.776 127.638 99.7636 127.638C95.9916 127.638 93.5996 125.844 93.5996 121.612V94.8857H97.5556V121.152C97.5556 123.222 98.9356 123.958 100.638 123.958C101.052 123.958 101.328 123.958 101.788 123.912V127.454Z" fill="white"/>
<path d="M83.3957 102.062V104.5H89.3297V108.18H83.3957V127.5H79.5317V108.18H75.8057V104.5H79.5317V101.97C79.5317 97.6919 81.9237 94.7939 86.8457 94.7939C88.0417 94.7939 88.8237 94.9779 89.5137 95.1619V98.7959C88.8237 98.6579 87.9497 98.5659 87.0297 98.5659C84.5917 98.5659 83.3957 99.9919 83.3957 102.062Z" fill="white"/>
<path d="M72.4055 114.022V127.5H68.4495V113.608C68.4495 109.468 66.7935 107.628 63.0215 107.628C59.3415 107.628 56.8115 110.066 56.8115 114.712V127.5H52.8555V104.5H56.8115V108.272C58.2835 105.558 60.9975 104.04 64.0795 104.04C69.3695 104.04 72.4055 107.674 72.4055 114.022Z" fill="white"/>
<path d="M37.4011 127.96C30.5011 127.96 26.4531 122.854 26.4531 115.954C26.4531 109.054 30.5011 104.04 37.4011 104.04C44.2551 104.04 48.2571 109.054 48.2571 115.954C48.2571 122.854 44.2551 127.96 37.4011 127.96ZM37.4011 107.72C32.4791 107.72 30.3171 111.584 30.3171 115.954C30.3171 120.324 32.4791 124.28 37.4011 124.28C42.2771 124.28 44.3931 120.324 44.3931 115.954C44.3931 111.584 42.2771 107.72 37.4011 107.72Z" fill="white"/>
<path d="M23.552 122.164V126.166C21.666 127.408 18.676 127.96 15.548 127.96C5.612 127.96 0 121.98 0 112.458C0 103.258 5.612 96.8179 15.456 96.8179C18.4 96.8179 21.344 97.3699 23.506 98.9339V102.936C21.344 101.556 18.952 100.82 15.456 100.82C8.372 100.82 4.14 105.512 4.14 112.458C4.14 119.404 8.51 124.004 15.686 124.004C18.86 124.004 21.344 123.268 23.552 122.164Z" fill="white"/>
<path d="M72.9482 18.75C72.9482 8.39466 81.3429 0 91.6982 0H129.198C139.554 0 147.948 8.39466 147.948 18.75V56.25C147.948 66.6053 139.554 75 129.198 75H91.6982C81.3429 75 72.9482 66.6053 72.9482 56.25V18.75Z" fill="#1868DB"/>
<g clip-path="url(#clip0_55714_38434)">
<path d="M127.229 44.5783C115.656 38.9824 112.275 38.1462 107.399 38.1462C101.677 38.1462 96.8011 40.5261 92.445 47.2154L91.7298 48.3089C91.1447 49.2094 91.0146 49.531 91.0146 49.9169C91.0146 50.3028 91.2097 50.6244 91.9249 51.0747L99.2717 55.6414C99.6618 55.8987 99.9869 56.0273 100.312 56.0273C100.702 56.0273 100.962 55.8344 101.352 55.2555L102.523 53.4545C104.343 50.6887 105.968 49.7882 108.049 49.7882C109.869 49.7882 112.015 50.3028 114.681 51.5892L122.353 55.1912C123.133 55.5771 123.978 55.3841 124.368 54.4836L128.009 46.5079C128.399 45.6074 128.139 45.0285 127.229 44.5783ZM93.4853 30.492C105.058 36.0879 108.439 36.9241 113.315 36.9241C119.037 36.9241 123.913 34.5442 128.269 27.8549L128.984 26.7614C129.569 25.861 129.699 25.5394 129.699 25.1534C129.699 24.7675 129.504 24.4459 128.789 23.9957L121.442 19.4289C121.052 19.1716 120.727 19.043 120.402 19.043C120.012 19.043 119.752 19.2359 119.362 19.8148L118.192 21.6158C116.371 24.3816 114.746 25.2821 112.665 25.2821C110.845 25.2821 108.699 24.7675 106.033 23.4811L98.3615 19.8791C97.5813 19.4932 96.7361 19.6862 96.346 20.5867L92.7051 28.5624C92.315 29.4629 92.575 30.0418 93.4853 30.492Z" fill="white"/>
</g>
<defs>
<clipPath id="clip0_55714_38434">
<rect width="38.6848" height="36.9844" fill="white" transform="translate(91.0146 19.043)"/>
</clipPath>
</defs>
</svg>
