<svg width="309" height="75" viewBox="0 0 309 75" fill="none" xmlns="http://www.w3.org/2000/svg">
<path d="M298.735 45.128C294.549 45.128 292.433 47.842 292.019 51.844H304.853C304.623 47.566 302.691 45.128 298.735 45.128ZM307.567 64.08C305.681 65.092 302.783 65.46 300.437 65.46C291.835 65.46 288.063 60.492 288.063 53.454C288.063 46.508 291.927 41.54 298.919 41.54C306.003 41.54 308.855 46.462 308.855 53.454V55.248H292.065C292.617 59.158 295.147 61.688 300.575 61.688C303.243 61.688 305.497 61.182 307.567 60.446V64.08Z" fill="#101214"/>
<path d="M284.927 60.86V64.402C283.547 65.138 281.431 65.46 279.315 65.46C271.127 65.46 267.309 60.492 267.309 53.454C267.309 46.508 271.127 41.54 279.315 41.54C281.385 41.54 282.995 41.816 284.789 42.644V46.324C283.317 45.634 281.753 45.22 279.591 45.22C273.611 45.22 271.173 48.992 271.173 53.454C271.173 57.916 273.657 61.688 279.683 61.688C282.029 61.688 283.501 61.366 284.927 60.86Z" fill="#101214"/>
<path d="M263.173 51.522V65H259.217V51.108C259.217 46.968 257.561 45.128 253.789 45.128C250.109 45.128 247.579 47.566 247.579 52.212V65H243.623V42H247.579V45.772C249.051 43.058 251.765 41.54 254.847 41.54C260.137 41.54 263.173 45.174 263.173 51.522Z" fill="#101214"/>
<path d="M228.792 45.128C224.606 45.128 222.49 47.842 222.076 51.844H234.91C234.68 47.566 232.748 45.128 228.792 45.128ZM237.624 64.08C235.738 65.092 232.84 65.46 230.494 65.46C221.892 65.46 218.12 60.492 218.12 53.454C218.12 46.508 221.984 41.54 228.976 41.54C236.06 41.54 238.912 46.462 238.912 53.454V55.248H222.122C222.674 59.158 225.204 61.688 230.632 61.688C233.3 61.688 235.554 61.182 237.624 60.446V64.08Z" fill="#101214"/>
<path d="M193.973 55.478V42H197.929V55.892C197.929 60.032 199.585 61.872 203.357 61.872C207.037 61.872 209.567 59.434 209.567 54.788V42H213.523V65H209.567V61.228C208.095 63.942 205.381 65.46 202.299 65.46C197.009 65.46 193.973 61.826 193.973 55.478Z" fill="#101214"/>
<path d="M190.627 64.954C190.305 65.046 189.615 65.138 188.603 65.138C184.831 65.138 182.439 63.344 182.439 59.112V32.386H186.395V58.652C186.395 60.722 187.775 61.458 189.477 61.458C189.891 61.458 190.167 61.458 190.627 61.412V64.954Z" fill="#101214"/>
<path d="M172.236 39.562V42H178.17V45.68H172.236V65H168.372V45.68H164.646V42H168.372V39.47C168.372 35.192 170.764 32.294 175.686 32.294C176.882 32.294 177.664 32.478 178.354 32.662V36.296C177.664 36.158 176.79 36.066 175.87 36.066C173.432 36.066 172.236 37.492 172.236 39.562Z" fill="#101214"/>
<path d="M161.245 51.522V65H157.289V51.108C157.289 46.968 155.633 45.128 151.861 45.128C148.181 45.128 145.651 47.566 145.651 52.212V65H141.695V42H145.651V45.772C147.123 43.058 149.837 41.54 152.919 41.54C158.209 41.54 161.245 45.174 161.245 51.522Z" fill="#101214"/>
<path d="M126.242 65.46C119.342 65.46 115.294 60.354 115.294 53.454C115.294 46.554 119.342 41.54 126.242 41.54C133.096 41.54 137.098 46.554 137.098 53.454C137.098 60.354 133.096 65.46 126.242 65.46ZM126.242 45.22C121.32 45.22 119.158 49.084 119.158 53.454C119.158 57.824 121.32 61.78 126.242 61.78C131.118 61.78 133.234 57.824 133.234 53.454C133.234 49.084 131.118 45.22 126.242 45.22Z" fill="#101214"/>
<path d="M112.392 59.664V63.666C110.506 64.908 107.516 65.46 104.388 65.46C94.452 65.46 88.84 59.48 88.84 49.958C88.84 40.758 94.452 34.318 104.296 34.318C107.24 34.318 110.184 34.87 112.346 36.434V40.436C110.184 39.056 107.792 38.32 104.296 38.32C97.212 38.32 92.98 43.012 92.98 49.958C92.98 56.904 97.35 61.504 104.526 61.504C107.7 61.504 110.184 60.768 112.392 59.664Z" fill="#101214"/>
<path d="M155.186 11.9857C155.186 14.5147 156.33 16.5017 160.967 17.4049C163.676 18.007 164.278 18.4285 164.278 19.3316C164.278 20.2348 163.676 20.7767 161.749 20.7767C159.522 20.7767 156.872 19.994 155.126 18.9704V23.0648C156.511 23.7271 158.317 24.5099 161.749 24.5099C166.566 24.5099 168.433 22.3423 168.433 19.2112M168.433 19.2714C168.433 16.2608 166.867 14.8759 162.352 13.9125C159.883 13.3706 159.281 12.8287 159.281 12.046C159.281 11.0826 160.184 10.6611 161.81 10.6611C163.797 10.6611 165.723 11.2632 167.59 12.1062V8.19237C166.265 7.53004 164.278 7.04834 161.93 7.04834C157.474 7.04834 155.186 8.97513 155.186 12.1062" fill="#101214"/>
<path d="M216.844 7.1687V24.3292H220.517V11.2631L222.022 14.6952L227.2 24.3292H231.777V7.1687H228.164V18.2478L226.779 14.9963L222.624 7.1687H216.844Z" fill="#101214"/>
<path d="M193.602 7.1687H189.628V24.3292H193.602V7.1687Z" fill="#101214"/>
<path d="M185.052 19.2112C185.052 16.2006 183.486 14.8158 178.97 13.8524C176.501 13.3104 175.899 12.7685 175.899 11.9858C175.899 11.0224 176.802 10.6009 178.428 10.6009C180.415 10.6009 182.342 11.203 184.209 12.046V8.13219C182.884 7.46986 180.897 6.98816 178.549 6.98816C174.093 6.98816 171.805 8.91495 171.805 12.046C171.805 14.5749 172.949 16.5619 177.585 17.4651C180.295 18.0672 180.897 18.4887 180.897 19.3919C180.897 20.2951 180.295 20.837 178.368 20.837C176.14 20.837 173.491 20.0542 171.745 19.0306V23.125C173.13 23.7874 174.936 24.5701 178.368 24.5701C183.125 24.5701 185.052 22.4025 185.052 19.2112Z" fill="#101214"/>
<path d="M124.237 7.1687V24.3292H132.426L133.691 20.596H128.211V7.1687H124.237Z" fill="#101214"/>
<path d="M108.04 7.1687V10.8416H112.436V24.3292H116.47V10.8416H121.227V7.1687H108.04Z" fill="#101214"/>
<path d="M102.2 7.16858H96.9611L91.0001 24.3291H95.5763L96.4192 21.4389C97.4428 21.7399 98.5267 21.9206 99.6105 21.9206C100.694 21.9206 101.778 21.7399 102.802 21.4389L103.645 24.3291H108.221C108.161 24.3291 102.2 7.16858 102.2 7.16858ZM99.5503 18.3078C98.7675 18.3078 98.045 18.1874 97.3826 18.0068L99.5503 10.5405L101.718 18.0068C101.056 18.1874 100.333 18.3078 99.5503 18.3078Z" fill="#101214"/>
<path d="M146.576 7.16858H141.337L135.316 24.3291H139.892L140.735 21.4389C141.759 21.7399 142.843 21.9206 143.927 21.9206C145.01 21.9206 146.094 21.7399 147.118 21.4389L147.961 24.3291H152.537L146.576 7.16858ZM143.927 18.3078C143.144 18.3078 142.421 18.1874 141.759 18.0068L143.927 10.5405L146.094 18.0068C145.432 18.1874 144.709 18.3078 143.927 18.3078Z" fill="#101214"/>
<path d="M207.992 7.16858H202.754L196.793 24.3291H201.369L202.212 21.4389C203.236 21.7399 204.319 21.9206 205.403 21.9206C206.487 21.9206 207.571 21.7399 208.595 21.4389L209.438 24.3291H214.014L207.992 7.16858ZM205.403 18.3078C204.621 18.3078 203.898 18.1874 203.236 18.0068L205.403 10.5405L207.571 18.0068C206.909 18.1874 206.126 18.3078 205.403 18.3078Z" fill="#101214"/>
<path d="M0 18.75C0 8.39466 8.39466 0 18.75 0H56.25C66.6053 0 75 8.39466 75 18.75V56.25C75 66.6053 66.6053 75 56.25 75H18.75C8.39466 75 0 66.6053 0 56.25V18.75Z" fill="#1868DB"/>
<g clip-path="url(#clip0_1_6117)">
<path d="M54.2806 44.5783C42.7077 38.9824 39.3268 38.1462 34.4506 38.1462C28.7291 38.1462 23.8529 40.5261 19.4968 47.2154L18.7816 48.3089C18.1964 49.2094 18.0664 49.531 18.0664 49.9169C18.0664 50.3028 18.2615 50.6244 18.9766 51.0747L26.3235 55.6414C26.7136 55.8987 27.0387 56.0273 27.3638 56.0273C27.7539 56.0273 28.0139 55.8344 28.404 55.2555L29.5743 53.4545C31.3948 50.6887 33.0202 49.7882 35.1007 49.7882C36.9212 49.7882 39.0667 50.3028 41.7324 51.5892L49.4044 55.1912C50.1846 55.5771 51.0298 55.3841 51.4199 54.4836L55.0608 46.5079C55.4509 45.6074 55.1908 45.0285 54.2806 44.5783ZM20.537 30.492C32.11 36.0879 35.4908 36.9241 40.3671 36.9241C46.0885 36.9241 50.9647 34.5442 55.3209 27.8549L56.036 26.7614C56.6212 25.861 56.7512 25.5394 56.7512 25.1534C56.7512 24.7675 56.5562 24.4459 55.841 23.9957L48.4941 19.4289C48.104 19.1716 47.7789 19.043 47.4539 19.043C47.0638 19.043 46.8037 19.2359 46.4136 19.8148L45.2433 21.6158C43.4228 24.3816 41.7974 25.2821 39.7169 25.2821C37.8964 25.2821 35.7509 24.7675 33.0852 23.4811L25.4133 19.8791C24.6331 19.4932 23.7879 19.6862 23.3978 20.5867L19.7568 28.5624C19.3667 29.4629 19.6268 30.0418 20.537 30.492Z" fill="white"/>
</g>
<defs>
<clipPath id="clip0_1_6117">
<rect width="38.6848" height="36.9844" fill="white" transform="translate(18.0664 19.043)"/>
</clipPath>
</defs>
</svg>
