<svg width="75" height="75" viewBox="0 0 75 75" fill="none" xmlns="http://www.w3.org/2000/svg">
<rect width="75" height="75" rx="18.75" fill="#1868DB"/>
<g clip-path="url(#clip0)">
<path d="M54.281 25.5353C42.708 19.9394 39.327 19.1032 34.451 19.1032C28.729 19.1032 23.853 21.4831 19.497 28.1724L18.782 29.2659C18.197 30.1664 18.067 30.488 18.067 30.8739C18.067 31.2598 18.262 31.5814 18.977 32.0317L26.324 36.5984C26.714 36.8557 27.039 36.9843 27.364 36.9843C27.754 36.9843 28.014 36.7914 28.404 36.2125L29.575 34.4115C31.395 31.6457 33.021 30.7452 35.101 30.7452C36.922 30.7452 39.067 31.2598 41.733 32.5462L49.404 36.1482C50.185 36.5341 51.03 36.3411 51.42 35.4406L55.061 27.4649C55.451 26.5644 55.191 25.9855 54.281 25.5353ZM20.537 11.449C32.11 17.0449 35.491 17.8811 40.367 17.8811C46.089 17.8811 50.965 15.5012 55.321 8.81191L56.037 7.71842C56.622 6.81796 56.752 6.49641 56.752 6.11048C56.752 5.72455 56.557 5.40299 55.842 4.95274L48.495 0.385955C48.105 0.128652 47.78 0 47.455 0C47.065 0 46.805 0.192978 46.415 0.771912L45.244 2.57287C43.424 5.33868 41.798 6.2392 39.717 6.2392C37.897 6.2392 35.751 5.72455 33.086 4.43818L25.414 0.836171C24.634 0.450237 23.788 0.643216 23.398 1.54367L19.757 9.51942C19.367 10.4199 19.627 10.9988 20.537 11.449Z" fill="white"/>
</g>
<defs>
<clipPath id="clip0">
<rect width="38.6848" height="36.9844" fill="white" transform="translate(18.067 0)"/>
</clipPath>
</defs>
</svg>
