<svg width="221" height="137" viewBox="0 0 221 137" fill="none" xmlns="http://www.w3.org/2000/svg">
<path d="M209.895 107.628C205.709 107.628 203.593 110.342 203.179 114.344H216.013C215.783 110.066 213.851 107.628 209.895 107.628ZM218.727 126.58C216.841 127.592 213.943 127.96 211.597 127.96C202.995 127.96 199.223 122.992 199.223 115.954C199.223 109.008 203.087 104.04 210.079 104.04C217.163 104.04 220.015 108.962 220.015 115.954V117.748H203.225C203.777 121.658 206.307 124.188 211.735 124.188C214.403 124.188 216.657 123.682 218.727 122.946V126.58Z" fill="#101214"/>
<path d="M196.087 123.36V126.902C194.707 127.638 192.591 127.96 190.475 127.96C182.287 127.96 178.469 122.992 178.469 115.954C178.469 109.008 182.287 104.04 190.475 104.04C192.545 104.04 194.155 104.316 195.949 105.144V108.824C194.477 108.134 192.913 107.72 190.751 107.72C184.771 107.72 182.333 111.492 182.333 115.954C182.333 120.416 184.817 124.188 190.843 124.188C193.189 124.188 194.661 123.866 196.087 123.36Z" fill="#101214"/>
<path d="M174.333 114.022V127.5H170.377V113.608C170.377 109.468 168.721 107.628 164.949 107.628C161.269 107.628 158.739 110.066 158.739 114.712V127.5H154.783V104.5H158.739V108.272C160.211 105.558 162.925 104.04 166.007 104.04C171.297 104.04 174.333 107.674 174.333 114.022Z" fill="#101214"/>
<path d="M139.952 107.628C135.766 107.628 133.65 110.342 133.236 114.344H146.07C145.84 110.066 143.908 107.628 139.952 107.628ZM148.784 126.58C146.898 127.592 144 127.96 141.654 127.96C133.052 127.96 129.28 122.992 129.28 115.954C129.28 109.008 133.144 104.04 140.136 104.04C147.22 104.04 150.072 108.962 150.072 115.954V117.748H133.282C133.834 121.658 136.364 124.188 141.792 124.188C144.46 124.188 146.714 123.682 148.784 122.946V126.58Z" fill="#101214"/>
<path d="M105.133 117.978V104.5H109.089V118.392C109.089 122.532 110.745 124.372 114.517 124.372C118.197 124.372 120.727 121.934 120.727 117.288V104.5H124.683V127.5H120.727V123.728C119.255 126.442 116.541 127.96 113.459 127.96C108.169 127.96 105.133 124.326 105.133 117.978Z" fill="#101214"/>
<path d="M101.787 127.454C101.465 127.546 100.775 127.638 99.7631 127.638C95.9911 127.638 93.5991 125.844 93.5991 121.612V94.886H97.5551V121.152C97.5551 123.222 98.9351 123.958 100.637 123.958C101.051 123.958 101.327 123.958 101.787 123.912V127.454Z" fill="#101214"/>
<path d="M83.3954 102.062V104.5H89.3294V108.18H83.3954V127.5H79.5314V108.18H75.8054V104.5H79.5314V101.97C79.5314 97.692 81.9234 94.794 86.8454 94.794C88.0414 94.794 88.8234 94.978 89.5134 95.162V98.796C88.8234 98.658 87.9494 98.566 87.0294 98.566C84.5914 98.566 83.3954 99.992 83.3954 102.062Z" fill="#101214"/>
<path d="M72.405 114.022V127.5H68.449V113.608C68.449 109.468 66.793 107.628 63.021 107.628C59.341 107.628 56.811 110.066 56.811 114.712V127.5H52.855V104.5H56.811V108.272C58.283 105.558 60.997 104.04 64.079 104.04C69.369 104.04 72.405 107.674 72.405 114.022Z" fill="#101214"/>
<path d="M37.4016 127.96C30.5016 127.96 26.4536 122.854 26.4536 115.954C26.4536 109.054 30.5016 104.04 37.4016 104.04C44.2556 104.04 48.2576 109.054 48.2576 115.954C48.2576 122.854 44.2556 127.96 37.4016 127.96ZM37.4016 107.72C32.4796 107.72 30.3176 111.584 30.3176 115.954C30.3176 120.324 32.4796 124.28 37.4016 124.28C42.2776 124.28 44.3936 120.324 44.3936 115.954C44.3936 111.584 42.2776 107.72 37.4016 107.72Z" fill="#101214"/>
<path d="M23.552 122.164V126.166C21.666 127.408 18.676 127.96 15.548 127.96C5.612 127.96 0 121.98 0 112.458C0 103.258 5.612 96.818 15.456 96.818C18.4 96.818 21.344 97.37 23.506 98.934V102.936C21.344 101.556 18.952 100.82 15.456 100.82C8.372 100.82 4.14 105.512 4.14 112.458C4.14 119.404 8.51 124.004 15.686 124.004C18.86 124.004 21.344 123.268 23.552 122.164Z" fill="#101214"/>
<path d="M72.948 18.75C72.948 8.39466 81.3427 0 91.698 0H129.198C139.553 0 147.948 8.39466 147.948 18.75V56.25C147.948 66.6053 139.553 75 129.198 75H91.698C81.3427 75 72.948 66.6053 72.948 56.25V18.75Z" fill="#1868DB"/>
<g clip-path="url(#clip0_1_6206)">
<path d="M127.229 44.5783C115.656 38.9824 112.275 38.1462 107.399 38.1462C101.677 38.1462 96.8009 40.5261 92.4448 47.2154L91.7296 48.3089C91.1444 49.2094 91.0144 49.531 91.0144 49.9169C91.0144 50.3028 91.2095 50.6244 91.9246 51.0747L99.2715 55.6414C99.6616 55.8987 99.9867 56.0273 100.312 56.0273C100.702 56.0273 100.962 55.8344 101.352 55.2555L102.522 53.4545C104.343 50.6887 105.968 49.7882 108.049 49.7882C109.869 49.7882 112.015 50.3028 114.68 51.5892L122.352 55.1912C123.133 55.5771 123.978 55.3841 124.368 54.4836L128.009 46.5079C128.399 45.6074 128.139 45.0285 127.229 44.5783ZM93.485 30.492C105.058 36.0879 108.439 36.9241 113.315 36.9241C119.037 36.9241 123.913 34.5442 128.269 27.8549L128.984 26.7614C129.569 25.861 129.699 25.5394 129.699 25.1534C129.699 24.7675 129.504 24.4459 128.789 23.9957L121.442 19.4289C121.052 19.1716 120.727 19.043 120.402 19.043C120.012 19.043 119.752 19.2359 119.362 19.8148L118.191 21.6158C116.371 24.3816 114.745 25.2821 112.665 25.2821C110.844 25.2821 108.699 24.7675 106.033 23.4811L98.3613 19.8791C97.5811 19.4932 96.7359 19.6862 96.3458 20.5867L92.7048 28.5624C92.3147 29.4629 92.5748 30.0418 93.485 30.492Z" fill="white"/>
</g>
<defs>
<clipPath id="clip0_1_6206">
<rect width="38.6848" height="36.9844" fill="white" transform="translate(91.0144 19.043)"/>
</clipPath>
</defs>
</svg>
