<svg width="221" height="164" viewBox="0 0 221 164" fill="none" xmlns="http://www.w3.org/2000/svg">
<path d="M209.895 134.128C205.709 134.128 203.593 136.842 203.179 140.844H216.013C215.783 136.566 213.851 134.128 209.895 134.128ZM218.727 153.08C216.841 154.092 213.943 154.46 211.597 154.46C202.995 154.46 199.223 149.492 199.223 142.454C199.223 135.508 203.087 130.54 210.079 130.54C217.163 130.54 220.015 135.462 220.015 142.454V144.248H203.225C203.777 148.158 206.307 150.688 211.735 150.688C214.403 150.688 216.657 150.182 218.727 149.446V153.08Z" fill="#101214"/>
<path d="M196.087 149.86V153.402C194.707 154.138 192.591 154.46 190.475 154.46C182.287 154.46 178.469 149.492 178.469 142.454C178.469 135.508 182.287 130.54 190.475 130.54C192.545 130.54 194.155 130.816 195.949 131.644V135.324C194.477 134.634 192.913 134.22 190.751 134.22C184.771 134.22 182.333 137.992 182.333 142.454C182.333 146.916 184.817 150.688 190.843 150.688C193.189 150.688 194.661 150.366 196.087 149.86Z" fill="#101214"/>
<path d="M174.333 140.522V154H170.377V140.108C170.377 135.968 168.721 134.128 164.949 134.128C161.269 134.128 158.739 136.566 158.739 141.212V154H154.783V131H158.739V134.772C160.211 132.058 162.925 130.54 166.007 130.54C171.297 130.54 174.333 134.174 174.333 140.522Z" fill="#101214"/>
<path d="M139.952 134.128C135.766 134.128 133.65 136.842 133.236 140.844H146.07C145.84 136.566 143.908 134.128 139.952 134.128ZM148.784 153.08C146.898 154.092 144 154.46 141.654 154.46C133.052 154.46 129.28 149.492 129.28 142.454C129.28 135.508 133.144 130.54 140.136 130.54C147.22 130.54 150.072 135.462 150.072 142.454V144.248H133.282C133.834 148.158 136.364 150.688 141.792 150.688C144.46 150.688 146.714 150.182 148.784 149.446V153.08Z" fill="#101214"/>
<path d="M105.133 144.478V131H109.089V144.892C109.089 149.032 110.745 150.872 114.517 150.872C118.197 150.872 120.727 148.434 120.727 143.788V131H124.683V154H120.727V150.228C119.255 152.942 116.541 154.46 113.459 154.46C108.169 154.46 105.133 150.826 105.133 144.478Z" fill="#101214"/>
<path d="M101.787 153.954C101.465 154.046 100.775 154.138 99.7631 154.138C95.9911 154.138 93.5991 152.344 93.5991 148.112V121.386H97.5551V147.652C97.5551 149.722 98.9351 150.458 100.637 150.458C101.051 150.458 101.327 150.458 101.787 150.412V153.954Z" fill="#101214"/>
<path d="M83.3954 128.562V131H89.3294V134.68H83.3954V154H79.5314V134.68H75.8054V131H79.5314V128.47C79.5314 124.192 81.9234 121.294 86.8454 121.294C88.0414 121.294 88.8234 121.478 89.5134 121.662V125.296C88.8234 125.158 87.9494 125.066 87.0294 125.066C84.5914 125.066 83.3954 126.492 83.3954 128.562Z" fill="#101214"/>
<path d="M72.405 140.522V154H68.449V140.108C68.449 135.968 66.793 134.128 63.021 134.128C59.341 134.128 56.811 136.566 56.811 141.212V154H52.855V131H56.811V134.772C58.283 132.058 60.997 130.54 64.079 130.54C69.369 130.54 72.405 134.174 72.405 140.522Z" fill="#101214"/>
<path d="M37.4016 154.46C30.5016 154.46 26.4536 149.354 26.4536 142.454C26.4536 135.554 30.5016 130.54 37.4016 130.54C44.2556 130.54 48.2576 135.554 48.2576 142.454C48.2576 149.354 44.2556 154.46 37.4016 154.46ZM37.4016 134.22C32.4796 134.22 30.3176 138.084 30.3176 142.454C30.3176 146.824 32.4796 150.78 37.4016 150.78C42.2776 150.78 44.3936 146.824 44.3936 142.454C44.3936 138.084 42.2776 134.22 37.4016 134.22Z" fill="#101214"/>
<path d="M23.552 148.664V152.666C21.666 153.908 18.676 154.46 15.548 154.46C5.612 154.46 0 148.48 0 138.958C0 129.758 5.612 123.318 15.456 123.318C18.4 123.318 21.344 123.87 23.506 125.434V129.436C21.344 128.056 18.952 127.32 15.456 127.32C8.372 127.32 4.14 132.012 4.14 138.958C4.14 145.904 8.51 150.504 15.686 150.504C18.86 150.504 21.344 149.768 23.552 148.664Z" fill="#101214"/>
<path d="M104.134 95.9857C104.134 98.5147 105.278 100.502 109.915 101.405C112.624 102.007 113.226 102.428 113.226 103.332C113.226 104.235 112.624 104.777 110.697 104.777C108.469 104.777 105.82 103.994 104.074 102.97V107.065C105.459 107.727 107.265 108.51 110.697 108.51C115.514 108.51 117.381 106.342 117.381 103.211M117.381 103.271C117.381 100.261 115.815 98.8759 111.299 97.9125C108.831 97.3706 108.229 96.8287 108.229 96.046C108.229 95.0826 109.132 94.6611 110.758 94.6611C112.745 94.6611 114.671 95.2632 116.538 96.1062V92.1924C115.213 91.53 113.226 91.0483 110.878 91.0483C106.422 91.0483 104.134 92.9751 104.134 96.1062" fill="#101214"/>
<path d="M165.792 91.1687V108.329H169.465V95.2631L170.97 98.6952L176.148 108.329H180.724V91.1687H177.112V102.248L175.727 98.9963L171.572 91.1687H165.792Z" fill="#101214"/>
<path d="M142.55 91.1687H138.576V108.329H142.55V91.1687Z" fill="#101214"/>
<path d="M134 103.211C134 100.201 132.434 98.8158 127.918 97.8524C125.449 97.3104 124.847 96.7685 124.847 95.9858C124.847 95.0224 125.75 94.6009 127.376 94.6009C129.363 94.6009 131.29 95.203 133.157 96.046V92.1322C131.832 91.4699 129.845 90.9882 127.497 90.9882C123.041 90.9882 120.753 92.915 120.753 96.046C120.753 98.5749 121.897 100.562 126.533 101.465C129.243 102.067 129.845 102.489 129.845 103.392C129.845 104.295 129.243 104.837 127.316 104.837C125.088 104.837 122.439 104.054 120.693 103.031V107.125C122.078 107.787 123.884 108.57 127.316 108.57C132.073 108.57 134 106.402 134 103.211Z" fill="#101214"/>
<path d="M73.1851 91.1687V108.329H81.3739L82.6384 104.596H77.1591V91.1687H73.1851Z" fill="#101214"/>
<path d="M56.9883 91.1687V94.8416H61.3838V108.329H65.418V94.8416H70.1748V91.1687H56.9883Z" fill="#101214"/>
<path d="M51.1475 91.1686H45.909L39.948 108.329H44.5241L45.3671 105.439C46.3907 105.74 47.4745 105.921 48.5584 105.921C49.6422 105.921 50.726 105.74 51.7496 105.439L52.5926 108.329H57.1687C57.1085 108.329 51.1475 91.1686 51.1475 91.1686ZM48.4981 102.308C47.7154 102.308 46.9928 102.187 46.3305 102.007L48.4981 94.5405L50.6658 102.007C50.0034 102.187 49.2809 102.308 48.4981 102.308Z" fill="#101214"/>
<path d="M95.5239 91.1686H90.2854L84.2642 108.329H88.8403L89.6833 105.439C90.7069 105.74 91.7907 105.921 92.8745 105.921C93.9583 105.921 95.0422 105.74 96.0658 105.439L96.9087 108.329H101.485L95.5239 91.1686ZM92.8745 102.308C92.0918 102.308 91.3692 102.187 90.7069 102.007L92.8745 94.5405L95.0422 102.007C94.3798 102.187 93.6573 102.308 92.8745 102.308Z" fill="#101214"/>
<path d="M156.94 91.1686H151.702L145.741 108.329H150.317L151.16 105.439C152.184 105.74 153.267 105.921 154.351 105.921C155.435 105.921 156.519 105.74 157.543 105.439L158.386 108.329H162.962L156.94 91.1686ZM154.351 102.308C153.569 102.308 152.846 102.187 152.184 102.007L154.351 94.5405L156.519 102.007C155.857 102.187 155.074 102.308 154.351 102.308Z" fill="#101214"/>
<path d="M72.948 18.75C72.948 8.39466 81.3427 0 91.698 0H129.198C139.553 0 147.948 8.39466 147.948 18.75V56.25C147.948 66.6053 139.553 75 129.198 75H91.698C81.3427 75 72.948 66.6053 72.948 56.25V18.75Z" fill="#1868DB"/>
<g clip-path="url(#clip0_1_5859)">
<path d="M127.229 44.5783C115.656 38.9824 112.275 38.1462 107.399 38.1462C101.677 38.1462 96.8009 40.5261 92.4448 47.2154L91.7296 48.3089C91.1444 49.2094 91.0144 49.531 91.0144 49.9169C91.0144 50.3028 91.2095 50.6244 91.9246 51.0747L99.2715 55.6414C99.6616 55.8987 99.9867 56.0273 100.312 56.0273C100.702 56.0273 100.962 55.8344 101.352 55.2555L102.522 53.4545C104.343 50.6887 105.968 49.7882 108.049 49.7882C109.869 49.7882 112.015 50.3028 114.68 51.5892L122.352 55.1912C123.133 55.5771 123.978 55.3841 124.368 54.4836L128.009 46.5079C128.399 45.6074 128.139 45.0285 127.229 44.5783ZM93.485 30.492C105.058 36.0879 108.439 36.9241 113.315 36.9241C119.037 36.9241 123.913 34.5442 128.269 27.8549L128.984 26.7614C129.569 25.861 129.699 25.5394 129.699 25.1534C129.699 24.7675 129.504 24.4459 128.789 23.9957L121.442 19.4289C121.052 19.1716 120.727 19.043 120.402 19.043C120.012 19.043 119.752 19.2359 119.362 19.8148L118.191 21.6158C116.371 24.3816 114.745 25.2821 112.665 25.2821C110.844 25.2821 108.699 24.7675 106.033 23.4811L98.3613 19.8791C97.5811 19.4932 96.7359 19.6862 96.3458 20.5867L92.7048 28.5624C92.3147 29.4629 92.5748 30.0418 93.485 30.492Z" fill="white"/>
</g>
<defs>
<clipPath id="clip0_1_5859">
<rect width="38.6848" height="36.9844" fill="white" transform="translate(91.0144 19.043)"/>
</clipPath>
</defs>
</svg>
