<svg width="309" height="75" viewBox="0 0 309 75" fill="none" xmlns="http://www.w3.org/2000/svg">
<path d="M298.734 45.128C294.548 45.128 292.432 47.842 292.018 51.844H304.852C304.622 47.566 302.69 45.128 298.734 45.128ZM307.566 64.08C305.68 65.092 302.782 65.46 300.436 65.46C291.834 65.46 288.062 60.492 288.062 53.454C288.062 46.508 291.927 41.54 298.919 41.54C306.003 41.54 308.855 46.462 308.855 53.454V55.248H292.064C292.616 59.158 295.146 61.688 300.574 61.688C303.242 61.688 305.496 61.182 307.566 60.446V64.08Z" fill="white"/>
<path d="M284.927 60.86V64.402C283.547 65.138 281.431 65.46 279.315 65.46C271.127 65.46 267.309 60.492 267.309 53.454C267.309 46.508 271.127 41.54 279.315 41.54C281.385 41.54 282.995 41.816 284.789 42.644V46.324C283.317 45.634 281.753 45.22 279.591 45.22C273.611 45.22 271.173 48.992 271.173 53.454C271.173 57.916 273.657 61.688 279.683 61.688C282.029 61.688 283.501 61.366 284.927 60.86Z" fill="white"/>
<path d="M263.173 51.522V65H259.217V51.108C259.217 46.968 257.561 45.128 253.789 45.128C250.109 45.128 247.579 47.566 247.579 52.212V65H243.623V42H247.579V45.772C249.051 43.058 251.765 41.54 254.847 41.54C260.137 41.54 263.173 45.174 263.173 51.522Z" fill="white"/>
<path d="M228.791 45.128C224.605 45.128 222.489 47.842 222.075 51.844H234.909C234.679 47.566 232.747 45.128 228.791 45.128ZM237.623 64.08C235.737 65.092 232.839 65.46 230.493 65.46C221.891 65.46 218.119 60.492 218.119 53.454C218.119 46.508 221.983 41.54 228.975 41.54C236.059 41.54 238.911 46.462 238.911 53.454V55.248H222.121C222.673 59.158 225.203 61.688 230.631 61.688C233.299 61.688 235.553 61.182 237.623 60.446V64.08Z" fill="white"/>
<path d="M193.974 55.478V42H197.93V55.892C197.93 60.032 199.586 61.872 203.358 61.872C207.038 61.872 209.568 59.434 209.568 54.788V42H213.524V65H209.568V61.228C208.096 63.942 205.382 65.46 202.3 65.46C197.01 65.46 193.974 61.826 193.974 55.478Z" fill="white"/>
<path d="M190.627 64.9537C190.305 65.0457 189.615 65.1377 188.603 65.1377C184.831 65.1377 182.439 63.3437 182.439 59.1117V32.3857H186.395V58.6517C186.395 60.7217 187.775 61.4577 189.477 61.4577C189.891 61.4577 190.167 61.4577 190.627 61.4117V64.9537Z" fill="white"/>
<path d="M172.236 39.5619V41.9999H178.17V45.6799H172.236V64.9999H168.372V45.6799H164.646V41.9999H168.372V39.4699C168.372 35.1919 170.764 32.2939 175.686 32.2939C176.882 32.2939 177.664 32.4779 178.354 32.6619V36.2959C177.664 36.1579 176.79 36.0659 175.87 36.0659C173.432 36.0659 172.236 37.4919 172.236 39.5619Z" fill="white"/>
<path d="M161.245 51.522V65H157.289V51.108C157.289 46.968 155.633 45.128 151.861 45.128C148.181 45.128 145.651 47.566 145.651 52.212V65H141.695V42H145.651V45.772C147.123 43.058 149.837 41.54 152.919 41.54C158.209 41.54 161.245 45.174 161.245 51.522Z" fill="white"/>
<path d="M126.241 65.46C119.341 65.46 115.293 60.354 115.293 53.454C115.293 46.554 119.341 41.54 126.241 41.54C133.095 41.54 137.097 46.554 137.097 53.454C137.097 60.354 133.095 65.46 126.241 65.46ZM126.241 45.22C121.319 45.22 119.157 49.084 119.157 53.454C119.157 57.824 121.319 61.78 126.241 61.78C131.117 61.78 133.233 57.824 133.233 53.454C133.233 49.084 131.117 45.22 126.241 45.22Z" fill="white"/>
<path d="M112.392 59.6639V63.6659C110.506 64.9079 107.516 65.4599 104.388 65.4599C94.4518 65.4599 88.8398 59.4799 88.8398 49.9579C88.8398 40.7579 94.4518 34.3179 104.296 34.3179C107.24 34.3179 110.184 34.8699 112.346 36.4339V40.4359C110.184 39.0559 107.792 38.3199 104.296 38.3199C97.2118 38.3199 92.9798 43.0119 92.9798 49.9579C92.9798 56.9039 97.3498 61.5039 104.526 61.5039C107.7 61.5039 110.184 60.7679 112.392 59.6639Z" fill="white"/>
<path d="M155.186 11.9857C155.186 14.5147 156.33 16.5017 160.967 17.4049C163.676 18.007 164.278 18.4285 164.278 19.3316C164.278 20.2348 163.676 20.7767 161.749 20.7767C159.521 20.7767 156.872 19.994 155.126 18.9704V23.0648C156.511 23.7271 158.317 24.5099 161.749 24.5099C166.566 24.5099 168.433 22.3423 168.433 19.2112M168.433 19.2714C168.433 16.2608 166.867 14.8759 162.351 13.9125C159.883 13.3706 159.281 12.8287 159.281 12.046C159.281 11.0826 160.184 10.6611 161.81 10.6611C163.797 10.6611 165.723 11.2632 167.59 12.1062V8.19237C166.265 7.53004 164.278 7.04834 161.93 7.04834C157.474 7.04834 155.186 8.97513 155.186 12.1062" fill="white"/>
<path d="M216.844 7.16846V24.329H220.517V11.2629L222.022 14.695L227.2 24.329H231.776V7.16846H228.164V18.2475L226.779 14.9961L222.624 7.16846H216.844Z" fill="white"/>
<path d="M193.602 7.16846H189.628V24.329H193.602V7.16846Z" fill="white"/>
<path d="M185.051 19.2109C185.051 16.2003 183.486 14.8154 178.97 13.852C176.501 13.3101 175.899 12.7682 175.899 11.9854C175.899 11.022 176.802 10.6005 178.428 10.6005C180.415 10.6005 182.341 11.2027 184.208 12.0456V8.13183C182.883 7.46949 180.896 6.98779 178.548 6.98779C174.092 6.98779 171.804 8.91459 171.804 12.0456C171.804 14.5745 172.948 16.5615 177.585 17.4647C180.294 18.0669 180.896 18.4883 180.896 19.3915C180.896 20.2947 180.294 20.8366 178.367 20.8366C176.14 20.8366 173.49 20.0539 171.744 19.0302V23.1247C173.129 23.787 174.935 24.5698 178.367 24.5698C183.124 24.5698 185.051 22.4021 185.051 19.2109Z" fill="white"/>
<path d="M124.237 7.16846V24.329H132.426L133.691 20.5958H128.211V7.16846H124.237Z" fill="white"/>
<path d="M108.04 7.16846V10.8414H112.436V24.329H116.47V10.8414H121.227V7.16846H108.04Z" fill="white"/>
<path d="M102.199 7.16846H96.961L91 24.329H95.5761L96.4191 21.4388C97.4427 21.7398 98.5265 21.9205 99.6104 21.9205C100.694 21.9205 101.778 21.7398 102.802 21.4388L103.645 24.329H108.221C108.16 24.329 102.199 7.16846 102.199 7.16846ZM99.5501 18.3077C98.7674 18.3077 98.0448 18.1873 97.3825 18.0067L99.5501 10.5403L101.718 18.0067C101.055 18.1873 100.333 18.3077 99.5501 18.3077Z" fill="white"/>
<path d="M146.576 7.16846H141.338L135.316 24.329H139.893L140.736 21.4388C141.759 21.7398 142.843 21.9205 143.927 21.9205C145.011 21.9205 146.094 21.7398 147.118 21.4388L147.961 24.329H152.537L146.576 7.16846ZM143.927 18.3077C143.144 18.3077 142.421 18.1873 141.759 18.0067L143.927 10.5403L146.094 18.0067C145.432 18.1873 144.71 18.3077 143.927 18.3077Z" fill="white"/>
<path d="M207.992 7.16846H202.754L196.793 24.329H201.369L202.212 21.4388C203.236 21.7398 204.319 21.9205 205.403 21.9205C206.487 21.9205 207.571 21.7398 208.595 21.4388L209.438 24.329H214.014L207.992 7.16846ZM205.403 18.3077C204.621 18.3077 203.898 18.1873 203.236 18.0067L205.403 10.5403L207.571 18.0067C206.909 18.1873 206.126 18.3077 205.403 18.3077Z" fill="white"/>
<path d="M0 18.75C0 8.39466 8.39466 0 18.75 0H56.25C66.6053 0 75 8.39466 75 18.75V56.25C75 66.6053 66.6053 75 56.25 75H18.75C8.39466 75 0 66.6053 0 56.25V18.75Z" fill="#1868DB"/>
<g clip-path="url(#clip0_55714_37665)">
<path d="M54.2806 44.5783C42.7077 38.9824 39.3268 38.1462 34.4506 38.1462C28.7291 38.1462 23.8529 40.5261 19.4968 47.2154L18.7816 48.3089C18.1964 49.2094 18.0664 49.531 18.0664 49.9169C18.0664 50.3028 18.2615 50.6244 18.9766 51.0747L26.3235 55.6414C26.7136 55.8987 27.0387 56.0273 27.3638 56.0273C27.7539 56.0273 28.0139 55.8344 28.404 55.2555L29.5743 53.4545C31.3948 50.6887 33.0202 49.7882 35.1007 49.7882C36.9212 49.7882 39.0667 50.3028 41.7324 51.5892L49.4044 55.1912C50.1846 55.5771 51.0298 55.3841 51.4199 54.4836L55.0608 46.5079C55.4509 45.6074 55.1908 45.0285 54.2806 44.5783ZM20.537 30.492C32.11 36.0879 35.4908 36.9241 40.3671 36.9241C46.0885 36.9241 50.9647 34.5442 55.3209 27.8549L56.036 26.7614C56.6212 25.861 56.7512 25.5394 56.7512 25.1534C56.7512 24.7675 56.5562 24.4459 55.841 23.9957L48.4941 19.4289C48.104 19.1716 47.7789 19.043 47.4539 19.043C47.0638 19.043 46.8037 19.2359 46.4136 19.8148L45.2433 21.6158C43.4228 24.3816 41.7974 25.2821 39.7169 25.2821C37.8964 25.2821 35.7509 24.7675 33.0852 23.4811L25.4133 19.8791C24.6331 19.4932 23.7879 19.6862 23.3978 20.5867L19.7568 28.5624C19.3667 29.4629 19.6268 30.0418 20.537 30.492Z" fill="white"/>
</g>
<defs>
<clipPath id="clip0_55714_37665">
<rect width="38.6848" height="36.9844" fill="white" transform="translate(18.0664 19.043)"/>
</clipPath>
</defs>
</svg>
