<svg width="221" height="164" viewBox="0 0 221 164" fill="none" xmlns="http://www.w3.org/2000/svg">
<path d="M209.895 134.128C205.709 134.128 203.593 136.842 203.179 140.844H216.013C215.783 136.566 213.851 134.128 209.895 134.128ZM218.727 153.08C216.841 154.092 213.943 154.46 211.597 154.46C202.995 154.46 199.223 149.492 199.223 142.454C199.223 135.508 203.087 130.54 210.079 130.54C217.163 130.54 220.015 135.462 220.015 142.454V144.248H203.225C203.777 148.158 206.307 150.688 211.735 150.688C214.403 150.688 216.657 150.182 218.727 149.446V153.08Z" fill="white"/>
<path d="M196.087 149.86V153.402C194.707 154.138 192.591 154.46 190.475 154.46C182.287 154.46 178.469 149.492 178.469 142.454C178.469 135.508 182.287 130.54 190.475 130.54C192.545 130.54 194.155 130.816 195.949 131.644V135.324C194.477 134.634 192.913 134.22 190.751 134.22C184.771 134.22 182.333 137.992 182.333 142.454C182.333 146.916 184.817 150.688 190.843 150.688C193.189 150.688 194.661 150.366 196.087 149.86Z" fill="white"/>
<path d="M174.333 140.522V154H170.377V140.108C170.377 135.968 168.721 134.128 164.949 134.128C161.269 134.128 158.739 136.566 158.739 141.212V154H154.783V131H158.739V134.772C160.211 132.058 162.925 130.54 166.007 130.54C171.297 130.54 174.333 134.174 174.333 140.522Z" fill="white"/>
<path d="M139.952 134.128C135.766 134.128 133.65 136.842 133.236 140.844H146.07C145.84 136.566 143.908 134.128 139.952 134.128ZM148.784 153.08C146.898 154.092 144 154.46 141.654 154.46C133.052 154.46 129.28 149.492 129.28 142.454C129.28 135.508 133.144 130.54 140.136 130.54C147.22 130.54 150.072 135.462 150.072 142.454V144.248H133.282C133.834 148.158 136.364 150.688 141.792 150.688C144.46 150.688 146.714 150.182 148.784 149.446V153.08Z" fill="white"/>
<path d="M105.133 144.478V131H109.089V144.892C109.089 149.032 110.745 150.872 114.517 150.872C118.197 150.872 120.727 148.434 120.727 143.788V131H124.683V154H120.727V150.228C119.255 152.942 116.541 154.46 113.459 154.46C108.169 154.46 105.133 150.826 105.133 144.478Z" fill="white"/>
<path d="M101.787 153.954C101.465 154.046 100.775 154.138 99.7631 154.138C95.9911 154.138 93.5991 152.344 93.5991 148.112V121.386H97.5551V147.652C97.5551 149.722 98.9351 150.458 100.637 150.458C101.051 150.458 101.327 150.458 101.787 150.412V153.954Z" fill="white"/>
<path d="M83.3957 128.562V131H89.3297V134.68H83.3957V154H79.5317V134.68H75.8057V131H79.5317V128.47C79.5317 124.192 81.9237 121.294 86.8457 121.294C88.0417 121.294 88.8237 121.478 89.5137 121.662V125.296C88.8237 125.158 87.9497 125.066 87.0297 125.066C84.5917 125.066 83.3957 126.492 83.3957 128.562Z" fill="white"/>
<path d="M72.405 140.522V154H68.449V140.108C68.449 135.968 66.793 134.128 63.021 134.128C59.341 134.128 56.811 136.566 56.811 141.212V154H52.855V131H56.811V134.772C58.283 132.058 60.997 130.54 64.079 130.54C69.369 130.54 72.405 134.174 72.405 140.522Z" fill="white"/>
<path d="M37.4016 154.46C30.5016 154.46 26.4536 149.354 26.4536 142.454C26.4536 135.554 30.5016 130.54 37.4016 130.54C44.2556 130.54 48.2576 135.554 48.2576 142.454C48.2576 149.354 44.2556 154.46 37.4016 154.46ZM37.4016 134.22C32.4796 134.22 30.3176 138.084 30.3176 142.454C30.3176 146.824 32.4796 150.78 37.4016 150.78C42.2776 150.78 44.3936 146.824 44.3936 142.454C44.3936 138.084 42.2776 134.22 37.4016 134.22Z" fill="white"/>
<path d="M23.552 148.664V152.666C21.666 153.908 18.676 154.46 15.548 154.46C5.612 154.46 0 148.48 0 138.958C0 129.758 5.612 123.318 15.456 123.318C18.4 123.318 21.344 123.87 23.506 125.434V129.436C21.344 128.056 18.952 127.32 15.456 127.32C8.372 127.32 4.14 132.012 4.14 138.958C4.14 145.904 8.51 150.504 15.686 150.504C18.86 150.504 21.344 149.768 23.552 148.664Z" fill="white"/>
<path d="M104.134 95.9857C104.134 98.5147 105.278 100.502 109.915 101.405C112.624 102.007 113.226 102.428 113.226 103.332C113.226 104.235 112.624 104.777 110.698 104.777C108.47 104.777 105.82 103.994 104.074 102.97V107.065C105.459 107.727 107.265 108.51 110.698 108.51C115.515 108.51 117.381 106.342 117.381 103.211M117.381 103.271C117.381 100.261 115.816 98.8759 111.3 97.9125C108.831 97.3706 108.229 96.8287 108.229 96.046C108.229 95.0826 109.132 94.6611 110.758 94.6611C112.745 94.6611 114.672 95.2632 116.538 96.1062V92.1924C115.213 91.53 113.226 91.0483 110.878 91.0483C106.422 91.0483 104.134 92.9751 104.134 96.1062" fill="white"/>
<path d="M165.792 91.1685V108.329H169.465V95.2629L170.97 98.695L176.149 108.329H180.725V91.1685H177.112V102.248L175.727 98.9961L171.572 91.1685H165.792Z" fill="white"/>
<path d="M142.55 91.1685H138.576V108.329H142.55V91.1685Z" fill="white"/>
<path d="M134 103.211C134 100.2 132.434 98.8154 127.918 97.852C125.45 97.3101 124.848 96.7682 124.848 95.9854C124.848 95.022 125.751 94.6005 127.376 94.6005C129.363 94.6005 131.29 95.2027 133.157 96.0456V92.1318C131.832 91.4695 129.845 90.9878 127.497 90.9878C123.041 90.9878 120.753 92.9146 120.753 96.0456C120.753 98.5745 121.897 100.562 126.533 101.465C129.243 102.067 129.845 102.488 129.845 103.392C129.845 104.295 129.243 104.837 127.316 104.837C125.088 104.837 122.439 104.054 120.693 103.03V107.125C122.078 107.787 123.884 108.57 127.316 108.57C132.073 108.57 134 106.402 134 103.211Z" fill="white"/>
<path d="M73.1855 91.1685V108.329H81.3744L82.6389 104.596H77.1596V91.1685H73.1855Z" fill="white"/>
<path d="M56.9888 91.1685V94.8414H61.3843V108.329H65.4185V94.8414H70.1753V91.1685H56.9888Z" fill="white"/>
<path d="M51.1477 91.1685H45.9093L39.9482 108.329H44.5244L45.3673 105.439C46.391 105.74 47.4748 105.92 48.5586 105.92C49.6424 105.92 50.7262 105.74 51.7498 105.439L52.5928 108.329H57.169C57.1087 108.329 51.1477 91.1685 51.1477 91.1685ZM48.4984 102.308C47.7156 102.308 46.9931 102.187 46.3307 102.007L48.4984 94.5403L50.666 102.007C50.0037 102.187 49.2811 102.308 48.4984 102.308Z" fill="white"/>
<path d="M95.5239 91.1685H90.2854L84.2642 108.329H88.8403L89.6833 105.439C90.7069 105.74 91.7907 105.92 92.8745 105.92C93.9583 105.92 95.0422 105.74 96.0658 105.439L96.9087 108.329H101.485L95.5239 91.1685ZM92.8745 102.308C92.0918 102.308 91.3692 102.187 90.7069 102.007L92.8745 94.5403L95.0422 102.007C94.3798 102.187 93.6573 102.308 92.8745 102.308Z" fill="white"/>
<path d="M156.941 91.1685H151.702L145.741 108.329H150.317L151.16 105.439C152.184 105.74 153.268 105.92 154.352 105.92C155.435 105.92 156.519 105.74 157.543 105.439L158.386 108.329H162.962L156.941 91.1685ZM154.352 102.308C153.569 102.308 152.846 102.187 152.184 102.007L154.352 94.5403L156.519 102.007C155.857 102.187 155.074 102.308 154.352 102.308Z" fill="white"/>
<path d="M72.9482 18.75C72.9482 8.39466 81.3429 0 91.6982 0H129.198C139.554 0 147.948 8.39466 147.948 18.75V56.25C147.948 66.6053 139.554 75 129.198 75H91.6982C81.3429 75 72.9482 66.6053 72.9482 56.25V18.75Z" fill="#1868DB"/>
<g clip-path="url(#clip0_55714_38052)">
<path d="M127.229 44.5783C115.656 38.9824 112.275 38.1462 107.399 38.1462C101.677 38.1462 96.8011 40.5261 92.445 47.2154L91.7298 48.3089C91.1447 49.2094 91.0146 49.531 91.0146 49.9169C91.0146 50.3028 91.2097 50.6244 91.9249 51.0747L99.2717 55.6414C99.6618 55.8987 99.9869 56.0273 100.312 56.0273C100.702 56.0273 100.962 55.8344 101.352 55.2555L102.523 53.4545C104.343 50.6887 105.968 49.7882 108.049 49.7882C109.869 49.7882 112.015 50.3028 114.681 51.5892L122.353 55.1912C123.133 55.5771 123.978 55.3841 124.368 54.4836L128.009 46.5079C128.399 45.6074 128.139 45.0285 127.229 44.5783ZM93.4853 30.492C105.058 36.0879 108.439 36.9241 113.315 36.9241C119.037 36.9241 123.913 34.5442 128.269 27.8549L128.984 26.7614C129.569 25.861 129.699 25.5394 129.699 25.1534C129.699 24.7675 129.504 24.4459 128.789 23.9957L121.442 19.4289C121.052 19.1716 120.727 19.043 120.402 19.043C120.012 19.043 119.752 19.2359 119.362 19.8148L118.192 21.6158C116.371 24.3816 114.746 25.2821 112.665 25.2821C110.845 25.2821 108.699 24.7675 106.033 23.4811L98.3615 19.8791C97.5813 19.4932 96.7361 19.6862 96.346 20.5867L92.7051 28.5624C92.315 29.4629 92.575 30.0418 93.4853 30.492Z" fill="white"/>
</g>
<defs>
<clipPath id="clip0_55714_38052">
<rect width="38.6848" height="36.9844" fill="white" transform="translate(91.0146 19.043)"/>
</clipPath>
</defs>
</svg>
