<svg width="75" height="137" viewBox="0 0 75 137" fill="none" xmlns="http://www.w3.org/2000/svg">
<path d="M50.7924 116C50.7924 121.52 53.0004 124.28 57.0944 124.28C60.6364 124.28 63.8104 122.026 63.8104 116.92V115.08C63.8104 109.974 60.9124 107.72 57.5544 107.72C53.0924 107.72 50.7924 110.664 50.7924 116ZM63.8104 127.5V123.36C62.3384 126.396 59.5784 127.96 56.0364 127.96C49.9184 127.96 46.8364 122.762 46.8364 116C46.8364 109.514 50.0564 104.04 56.4964 104.04C59.8544 104.04 62.4304 105.558 63.8104 108.548V104.5H67.7664V127.5H63.8104Z" fill="#101214"/>
<path d="M37.1216 113.93V127.5H33.2576V104.5H37.1216V108.548C38.4556 105.834 40.7556 103.902 45.2636 104.178V108.042C40.2036 107.536 37.1216 109.054 37.1216 113.93Z" fill="#101214"/>
<path d="M22.5938 98.428C22.5938 96.68 23.7438 95.668 25.3538 95.668C26.9638 95.668 28.1138 96.68 28.1138 98.428C28.1138 100.176 26.9638 101.188 25.3538 101.188C23.7438 101.188 22.5938 100.176 22.5938 98.428ZM23.3298 127.5V104.5H27.2858V127.5H23.3298Z" fill="#101214"/>
<path d="M13.6878 118.576V97.278H17.8278V118.3C17.8278 123.866 15.3898 127.684 9.68577 127.684C7.52377 127.684 5.86777 127.316 4.71777 126.902V122.9C5.95977 123.406 7.47777 123.682 8.99577 123.682C12.4918 123.682 13.6878 121.566 13.6878 118.576Z" fill="#101214"/>
<path d="M0 18.75C0 8.39466 8.39466 0 18.75 0H56.25C66.6053 0 75 8.39466 75 18.75V56.25C75 66.6053 66.6053 75 56.25 75H18.75C8.39466 75 0 66.6053 0 56.25V18.75Z" fill="#1868DB"/>
<g clip-path="url(#clip0_1_5542)">
<path d="M28.0429 48.5107H23.817C17.4434 48.5107 12.8711 44.6068 12.8711 38.8904H35.5942C36.772 38.8904 37.534 39.7269 37.534 40.9121V63.7778C31.8532 63.7778 28.0429 59.1767 28.0429 52.7632V48.5107ZM39.266 37.1476H35.04C28.6664 37.1476 24.0941 33.3134 24.0941 27.597H46.8172C47.995 27.597 48.8263 28.3638 48.8263 29.5489V52.4146C43.1455 52.4146 39.266 47.8136 39.266 41.4001V37.1476ZM50.5582 25.8542H46.3323C39.9587 25.8542 35.3864 21.9503 35.3864 16.2338H58.1095C59.2873 16.2338 60.0493 17.0704 60.0493 18.1858V41.0515C54.3685 41.0515 50.5582 36.4505 50.5582 30.0369V25.8542Z" fill="white"/>
</g>
<defs>
<clipPath id="clip0_1_5542">
<rect width="47.1782" height="47.5439" fill="white" transform="translate(12.8711 16.2346)"/>
</clipPath>
</defs>
</svg>
