<svg width="75" height="75" viewBox="0 0 75 75" fill="none" xmlns="http://www.w3.org/2000/svg">
<rect width="75" height="75" rx="18.75" fill="#1868DB"/>
<g clip-path="url(#clip0)">
<path d="M28.1719 32.2761H23.9459C17.5723 32.2761 13 28.3722 13 22.6558H35.7231C36.9009 22.6558 37.6629 23.4923 37.6629 24.6775V47.5432C31.9821 47.5432 28.1719 42.9421 28.1719 36.5286V32.2761ZM39.3949 20.913H35.169C28.7954 20.913 24.2231 17.0788 24.2231 11.3624H46.9462C48.124 11.3624 48.9553 12.1292 48.9553 13.3143V36.18C43.2745 36.18 39.3949 31.579 39.3949 25.1655V20.913ZM50.6871 9.61961H46.4612C40.0876 9.61961 35.5153 5.71573 35.5153 0H58.2384C59.4162 0 60.1782 0.836454 60.1782 1.95121V24.8169C54.4974 24.8169 50.6871 20.2159 50.6871 13.8023V9.61961Z" fill="white"/>
</g>
<defs>
<clipPath id="clip0">
<rect width="47.1782" height="47.5439" fill="white" transform="translate(13 0)"/>
</clipPath>
</defs>
</svg>
