<svg width="75" height="137" viewBox="0 0 75 137" fill="none" xmlns="http://www.w3.org/2000/svg">
<path d="M50.7929 116C50.7929 121.52 53.0009 124.28 57.0949 124.28C60.6369 124.28 63.8109 122.026 63.8109 116.92V115.08C63.8109 109.974 60.9129 107.72 57.5549 107.72C53.0929 107.72 50.7929 110.664 50.7929 116ZM63.8109 127.5V123.36C62.3389 126.396 59.5789 127.96 56.0369 127.96C49.9189 127.96 46.8369 122.762 46.8369 116C46.8369 109.514 50.0569 104.04 56.4969 104.04C59.8549 104.04 62.4309 105.558 63.8109 108.548V104.5H67.7669V127.5H63.8109Z" fill="white"/>
<path d="M37.1218 113.93V127.5H33.2578V104.5H37.1218V108.548C38.4558 105.834 40.7558 103.902 45.2638 104.178V108.042C40.2038 107.536 37.1218 109.054 37.1218 113.93Z" fill="white"/>
<path d="M22.5938 98.428C22.5938 96.68 23.7438 95.668 25.3538 95.668C26.9638 95.668 28.1138 96.68 28.1138 98.428C28.1138 100.176 26.9638 101.188 25.3538 101.188C23.7438 101.188 22.5938 100.176 22.5938 98.428ZM23.3298 127.5V104.5H27.2858V127.5H23.3298Z" fill="white"/>
<path d="M13.6878 118.576V97.2778H17.8278V118.3C17.8278 123.866 15.3898 127.684 9.68577 127.684C7.52377 127.684 5.86777 127.316 4.71777 126.902V122.9C5.95977 123.406 7.47777 123.682 8.99577 123.682C12.4918 123.682 13.6878 121.566 13.6878 118.576Z" fill="white"/>
<path d="M0 18.75C0 8.39466 8.39466 0 18.75 0H56.25C66.6053 0 75 8.39466 75 18.75V56.25C75 66.6053 66.6053 75 56.25 75H18.75C8.39466 75 0 66.6053 0 56.25V18.75Z" fill="#1868DB"/>
<g clip-path="url(#clip0_55714_36029)">
<path d="M28.0429 48.5103H23.817C17.4434 48.5103 12.8711 44.6064 12.8711 38.89H35.5942C36.772 38.89 37.534 39.7265 37.534 40.9116V63.7773C31.8532 63.7773 28.0429 59.1763 28.0429 52.7628V48.5103ZM39.266 37.1472H35.04C28.6664 37.1472 24.0941 33.313 24.0941 27.5965H46.8172C47.995 27.5965 48.8263 28.3634 48.8263 29.5485V52.4142C43.1455 52.4142 39.266 47.8132 39.266 41.3996V37.1472ZM50.5582 25.8537H46.3323C39.9587 25.8537 35.3864 21.9498 35.3864 16.2334H58.1095C59.2873 16.2334 60.0493 17.0699 60.0493 18.1853V41.0511C54.3685 41.0511 50.5582 36.45 50.5582 30.0365V25.8537Z" fill="white"/>
</g>
<defs>
<clipPath id="clip0_55714_36029">
<rect width="47.1782" height="47.5439" fill="white" transform="translate(12.8711 16.2344)"/>
</clipPath>
</defs>
</svg>
